<svg width="24" height="24" viewBox="0 0 24 24" fill="none" xmlns="http://www.w3.org/2000/svg">
<path d="M21 18L21 6" stroke="currentColor" stroke-linecap="round"/>
<path d="M4 18L4 6" stroke="currentColor" stroke-linecap="round"/>
<path d="M8 16L10 16C10.5523 16 11 15.5523 11 15L11 9C11 8.44772 10.5523 8 10 8L8 8C7.44771 8 7 8.44772 7 9L7 15C7 15.5523 7.44772 16 8 16Z" stroke="currentColor"/>
<path d="M15 16L17 16C17.5523 16 18 15.5523 18 15L18 9C18 8.44771 17.5523 8 17 8L15 8C14.4477 8 14 8.44771 14 9L14 15C14 15.5523 14.4477 16 15 16Z" stroke="currentColor"/>
</svg>
