<svg width="24" height="24" viewBox="0 0 24 24" fill="none" xmlns="http://www.w3.org/2000/svg">
<path fill-rule="evenodd" clip-rule="evenodd" d="M2 5C2 3.34315 3.34315 2 5 2H6.75C7.30228 2 7.75 2.44772 7.75 3C7.75 3.55228 7.30228 4 6.75 4H5C4.44772 4 4 4.44772 4 5V6.75C4 7.30228 3.55228 7.75 3 7.75C2.44772 7.75 2 7.30228 2 6.75V5ZM9.25 3C9.25 2.44772 9.69772 2 10.25 2H13.75C14.3023 2 14.75 2.44772 14.75 3C14.75 3.55228 14.3023 4 13.75 4H10.25C9.69772 4 9.25 3.55228 9.25 3ZM16.25 3C16.25 2.44772 16.6977 2 17.25 2H19C20.6569 2 22 3.34315 22 5V6.75C22 7.30228 21.5523 7.75 21 7.75C20.4477 7.75 20 7.30228 20 6.75V5C20 4.44771 19.5523 4 19 4H17.25C16.6977 4 16.25 3.55228 16.25 3ZM3 9.25C3.55228 9.25 4 9.69772 4 10.25V13.75C4 14.3023 3.55228 14.75 3 14.75C2.44772 14.75 2 14.3023 2 13.75V10.25C2 9.69772 2.44772 9.25 3 9.25ZM21 9.25C21.5523 9.25 22 9.69772 22 10.25V13.75C22 14.3023 21.5523 14.75 21 14.75C20.4477 14.75 20 14.3023 20 13.75V10.25C20 9.69772 20.4477 9.25 21 9.25ZM3 16.25C3.55228 16.25 4 16.6977 4 17.25V19C4 19.5523 4.44771 20 5 20H6.75C7.30228 20 7.75 20.4477 7.75 21C7.75 21.5523 7.30228 22 6.75 22H5C3.34315 22 2 20.6569 2 19V17.25C2 16.6977 2.44772 16.25 3 16.25ZM21 16.25C21.5523 16.25 22 16.6977 22 17.25V19C22 20.6569 20.6569 22 19 22H17.25C16.6977 22 16.25 21.5523 16.25 21C16.25 20.4477 16.6977 20 17.25 20H19C19.5523 20 20 19.5523 20 19V17.25C20 16.6977 20.4477 16.25 21 16.25ZM9.25 21C9.25 20.4477 9.69772 20 10.25 20H13.75C14.3023 20 14.75 20.4477 14.75 21C14.75 21.5523 14.3023 22 13.75 22H10.25C9.69772 22 9.25 21.5523 9.25 21Z" fill="currentColor"/>
</svg>
