<svg width="48" height="48" viewBox="0 0 48 48" fill="none" xmlns="http://www.w3.org/2000/svg">
<rect width="48" height="48" rx="4" fill="black"/>
<path d="M19.5046 10.3715C21.1817 10.3715 22.5412 11.731 22.5412 13.4081L22.5412 19.5047C22.5412 21.1817 21.1817 22.5413 19.5046 22.5413L13.4081 22.5413C11.731 22.5413 10.3715 21.1817 10.3715 19.5047L12.7979 13.8102C13.1593 13.1593 13.1593 13.1593 13.8101 12.798L19.5046 10.3715Z" fill="#F4F4F4"/>
<path d="M37.6285 19.5046C37.6285 21.1817 36.269 22.5412 34.5919 22.5412L28.4953 22.5412C26.8183 22.5412 25.4587 21.1817 25.4587 19.5046V13.4081C25.4587 11.731 26.8183 10.3715 28.4953 10.3715L34.1898 12.7979C34.8407 13.1593 34.8407 13.1593 35.202 13.8101L37.6285 19.5046Z" fill="#F4F4F4"/>
<path d="M28.4953 37.6285C26.8182 37.6285 25.4587 36.269 25.4587 34.5919L25.4587 28.4953C25.4587 26.8183 26.8182 25.4587 28.4953 25.4587L34.5919 25.4587C36.2689 25.4587 37.6285 26.8183 37.6285 28.4953L35.202 34.1898C34.8407 34.8407 34.8407 34.8407 34.1898 35.2021L28.4953 37.6285Z" fill="#F4F4F4"/>
<path d="M10.3715 28.4953C10.3715 26.8182 11.731 25.4587 13.4081 25.4587L19.5047 25.4587C21.1817 25.4587 22.5413 26.8182 22.5413 28.4953L22.5413 34.5919C22.5413 36.2689 21.1817 37.6285 19.5047 37.6285L13.8102 35.202C13.1593 34.8407 13.1593 34.8407 12.7979 34.1898L10.3715 28.4953Z" fill="#F4F4F4"/>
</svg>
